<svg xmlns="http://www.w3.org/2000/svg" width="1024" height="1024" viewBox="0 0 1024 1024">
  <defs>
    <style>
      .cls-1 {
        fill: #464646;
        opacity: 0.8;
      }

      .cls-1, .cls-3, .cls-4, .cls-5 {
        fill-rule: evenodd;
      }

      .cls-2 {
        fill: #ebebeb;
        stroke: #252525;
        stroke-width: 12px;
      }

      .cls-3 {
        fill: #00796b;
      }

      .cls-4 {
        fill: #ffad42;
      }

      .cls-5 {
        fill: #252525;
      }
    </style>
  </defs>
  <g id="foreground">
    <path id="shadow" class="cls-1" d="M468.422,70.123c147.539,0,267.143,119.6,267.143,267.143s-119.6,267.143-267.143,267.143-267.143-119.6-267.143-267.143S320.883,70.123,468.422,70.123Zm-3.8,249.1c-11.85,3.156-38.95,45.6-38.95,45.6l-2.85,134.9v201.4l-94.05-84.55s-42.237-5.375-53.2,1.9c-18,11.942-21.37,35.455-21.85,45.6-0.941,19.9,13.3,45.6,13.3,45.6l74.1,79.8,107.35,109.25,92.15,57.95,128.25,15.2,104.5-29.45,55.1-82.65,16.15-133-5.7-139.65s-8.239-44.364-26.6-52.25c-16.957-7.283-57,3.8-57,3.8l-33.25-14.25-45.6-27.55-37.05,1.9s-19.807-27.761-38.95-36.1c-18.651-8.126-47.5,3.8-47.5,3.8s-14.934,11.259-19.95,9.5c-10.341-3.627-9.5-81.7-9.5-81.7l-15.2-63.65S479.943,315.147,464.625,319.227Zm-222.3,295.45c15.983-18.168,38.391-24.99,56.05-25.65,38.891-.771,52.25,16.15,52.25,16.15l43.7,43.7,0.95-288.8s-0.056-30.178,29.45-50.35c12.151-9.915,28.531-17.094,46.55-17.1,29.651-.012,50.029,17.687,59.85,31.35,6.187,8.607,11.521,16.132,13.3,34.2s0.95,83.6.95,83.6,13.457-8.314,35.15-8.55c15.175-.525,32.11,6.508,42.75,18.05,15,9.4,21.85,32.3,21.85,32.3s14.072-10.441,37.05-11.4c5.915-.626,19.821,1.558,34.2,9.5,15.626,8.63,25.187,20.093,27.55,25.65a51.33,51.33,0,0,1,7.6,14.25s10.713-9.557,37.05-11.4c16.548-1.884,33.2,7.456,45.6,18.05a76.853,76.853,0,0,1,23.75,37.05c2.63,9.179,2.85,23.75,2.85,23.75v198.55s-2.84,49.348-13.3,79.8c-10.377,43.888-33.843,66.023-49.4,79.8-16.953,15.012-48,30.862-91.2,39.9-90.439,18.923-158.648,4.223-196.65-13.3-26.876-12.394-63.65-41.8-63.65-41.8l-203.3-207.1s-19.073-21.295-21.85-43.7c-1.011-8.159-.07-21.339,4.75-36.1C230.657,631.35,237.509,620.151,242.325,614.677Zm39.9,35.15a38.056,38.056,0,0,1,25.65-10.45c7.655-.094,14.657,1.8,19.95,5.7,3.85,2.839,7.6,8.55,7.6,8.55l105.45,106.4v-380s2-16.4,7.6-22.8a29.053,29.053,0,0,1,18.05-9.5,30.367,30.367,0,0,1,19.95,4.75c5.54,3.487,11.092,9.374,13.3,17.1a40.119,40.119,0,0,1,.95,9.5v241.3s-0.111,6.232,1.9,10.45a21.264,21.264,0,0,0,11.4,10.45,22.334,22.334,0,0,0,12.35.95,25.133,25.133,0,0,0,7.6-2.85,23.562,23.562,0,0,0,8.55-7.6,39.65,39.65,0,0,0,2.85-6.65v-112.1s3.254-10.572,7.6-15.2a31.5,31.5,0,0,1,21.85-9.5c6.791-.2,16.819,1.751,23.75,9.5,3.924,4.386,6.65,14.25,6.65,14.25v141.55s3.579,12.227,8.55,16.15c6.886,5.434,15.629,5.144,20.9,3.8a21.516,21.516,0,0,0,10.45-5.7c3.032-3.133,5.7-12.35,5.7-12.35l0.95-104.5s5.86-17,13.3-19.95c6.075-3.629,15.4-6.277,20.9-2.85,7.416,1.331,13.165,4.388,17.1,8.55,5.617,3.867,6.65,12.35,6.65,12.35l1.9,131.1s4.3,10.079,8.55,13.3a23.141,23.141,0,0,0,19.95,3.8,22.394,22.394,0,0,0,12.35-8.55c2.46-3.519,3.8-10.45,3.8-10.45v-89.3s3.862-16,10.45-19a29.7,29.7,0,0,1,19.95-7.6,29.192,29.192,0,0,1,19.95,8.55c8.634,5.269,8.55,17.1,8.55,17.1v195.7s-1.023,30.515-4.75,47.5c-0.846,8.231-3.908,27.662-12.35,44.65a110.97,110.97,0,0,1-24.7,33.25c-8.167,7.4-23.484,16.963-42.75,23.75a198.156,198.156,0,0,1-41.8,9.5c-51.465,9.057-98.152,3.519-128.25-2.85-26.387-5.584-45.845-13.214-63.65-25.65-10.7-7.478-25.65-22.8-25.65-22.8l-191.9-194.75s-7.191-7.883-8.55-16.15c-0.8-4.842-.276-10.792,2.85-18.05A37.651,37.651,0,0,1,282.225,649.827Z"/>
    <g id="nfc_tag" data-name="nfc tag">
      <circle id="TAG" class="cls-2" cx="456.421" cy="323.265" r="267.14"/>
      <path id="nfc" class="cls-3" d="M584.6,405.769c19.811-19.826,31.51-50.245,31.556-82.492,0.046-33.1-12.188-64.272-32.818-84.11l-5.049-1.618-6.311,4.853-1.263,4.852,2.525,4.853c16.862,16.716,27.087,42.223,27.769,69.552,0.7,27.918-8.643,54.724-25.245,72.788v9.7l3.787,3.235Zm30.293,37.2c25.4-31.219,39.613-74.578,39.129-119.694-0.491-45.855-16.119-89.329-42.915-119.695h-2.525l-3.786,1.617-3.787,3.235-1.262,4.853v4.852c24.588,26.506,39.01,65.516,39.129,106.755,0.113,39.346-12.8,76.876-35.343,103.52V436.5l2.525,3.235,3.786,3.235h5.049Zm-285.7-37.216c-19.811-19.823-31.51-50.237-31.556-82.478-0.046-33.093,12.188-64.261,32.818-84.1l5.049-1.617,6.311,4.851,1.262,4.852-2.524,4.852c-16.862,16.713-27.088,42.216-27.769,69.54-0.7,27.914,8.643,54.715,25.245,72.775v9.7l-3.787,3.234Zm-30.294,37.2c-25.4-31.214-39.612-74.566-39.129-119.674,0.492-45.848,16.12-89.313,42.916-119.675h2.525L309,205.219l3.787,3.235,1.262,4.851v4.852c-24.589,26.5-39.01,65.5-39.129,106.737-0.114,39.339,12.805,76.863,35.343,103.5v8.086l-2.525,3.235-3.787,3.234H298.9Z"/>
    </g>
    <path id="TAG-2" data-name="TAG" class="cls-3" d="M397.26,139.8H342.511v7.036h23.116v67.6h8.623v-67.6h23.01V139.8Zm64.566,0H451.405L427.02,214.438h8.992l8.358-26.131h24.492l8.251,26.131h9.1Zm-14.97,40.943,9.733-30.892,9.786,30.892H446.856Zm120.373-1.64H545.118v7.511h13.436v18.408q-3.915,3.228-11.585,3.227-20.365,0-20.365-31.1,0-16.134,5.052-23.645t15.313-7.512a32.557,32.557,0,0,1,16.346,4.232l2.856-6.824a26.246,26.246,0,0,0-8.516-3.65,42.347,42.347,0,0,0-10.686-1.375q-15.023,0-22.3,10.209T517.4,177.146q0,18.99,7.511,28.855t22.058,9.865a33.448,33.448,0,0,0,20.26-6.718V179.1Z"/>
    <g id="hand">
      <path class="cls-4" d="M452.625,305.227c-11.85,3.156-38.95,45.6-38.95,45.6l-2.85,134.9v201.4l-94.05-84.55s-42.237-5.375-53.2,1.9c-18,11.942-21.37,35.455-21.85,45.6-0.941,19.9,13.3,45.6,13.3,45.6l74.1,79.8,107.35,109.25,92.15,57.95,128.25,15.2,104.5-29.45,55.1-82.65,16.15-133-5.7-139.65s-8.239-44.364-26.6-52.25c-16.957-7.283-57,3.8-57,3.8l-33.25-14.25-45.6-27.55-37.05,1.9s-19.807-27.761-38.95-36.1c-18.651-8.126-47.5,3.8-47.5,3.8s-14.934,11.259-19.95,9.5c-10.341-3.627-9.5-81.7-9.5-81.7l-15.2-63.65S467.943,301.147,452.625,305.227Z"/>
      <path id="hand-2" data-name="hand" class="cls-5" d="M230.325,600.677c15.983-18.168,38.391-24.99,56.05-25.65,38.891-.771,52.25,16.15,52.25,16.15l43.7,43.7,0.95-288.8s-0.056-30.178,29.45-50.35c12.151-9.915,28.531-17.094,46.55-17.1,29.651-.012,50.029,17.687,59.85,31.35,6.187,8.607,11.521,16.132,13.3,34.2s0.95,83.6.95,83.6,13.457-8.314,35.15-8.55c15.175-.525,32.11,6.508,42.75,18.05,15,9.4,21.85,32.3,21.85,32.3s14.072-10.441,37.05-11.4c5.915-.626,19.821,1.558,34.2,9.5,15.626,8.63,25.187,20.093,27.55,25.65a51.33,51.33,0,0,1,7.6,14.25s10.713-9.557,37.05-11.4c16.548-1.884,33.2,7.456,45.6,18.05a76.853,76.853,0,0,1,23.75,37.05c2.63,9.179,2.85,23.75,2.85,23.75v198.55s-2.84,49.348-13.3,79.8c-10.377,43.888-33.843,66.023-49.4,79.8-16.953,15.012-48,30.862-91.2,39.9-90.439,18.918-158.648,4.223-196.65-13.3-26.876-12.394-63.65-41.8-63.65-41.8l-203.3-207.1s-19.073-21.295-21.85-43.7c-1.011-8.159-.07-21.339,4.75-36.1C218.657,617.35,225.509,606.151,230.325,600.677Zm39.9,35.15a38.056,38.056,0,0,1,25.65-10.45c7.655-.094,14.657,1.8,19.95,5.7,3.85,2.839,7.6,8.55,7.6,8.55l105.45,106.4v-380s2-16.4,7.6-22.8a29.053,29.053,0,0,1,18.05-9.5,30.367,30.367,0,0,1,19.95,4.75c5.54,3.487,11.092,9.374,13.3,17.1a40.119,40.119,0,0,1,.95,9.5v241.3s-0.111,6.232,1.9,10.45a21.264,21.264,0,0,0,11.4,10.45,22.334,22.334,0,0,0,12.35.95,25.133,25.133,0,0,0,7.6-2.85,23.562,23.562,0,0,0,8.55-7.6,39.65,39.65,0,0,0,2.85-6.65v-112.1s3.254-10.572,7.6-15.2a31.5,31.5,0,0,1,21.85-9.5c6.791-.2,16.819,1.751,23.75,9.5,3.924,4.386,6.65,14.25,6.65,14.25v141.55s3.579,12.227,8.55,16.15c6.886,5.434,15.629,5.144,20.9,3.8a21.516,21.516,0,0,0,10.45-5.7c3.032-3.133,5.7-12.35,5.7-12.35l0.95-104.5s5.86-17,13.3-19.95c6.075-3.629,15.4-6.277,20.9-2.85,7.416,1.331,13.165,4.388,17.1,8.55,5.617,3.867,6.65,12.35,6.65,12.35l1.9,131.1s4.3,10.079,8.55,13.3a23.141,23.141,0,0,0,19.95,3.8,22.394,22.394,0,0,0,12.35-8.55c2.46-3.519,3.8-10.45,3.8-10.45v-89.3s3.862-16,10.45-19a29.7,29.7,0,0,1,19.95-7.6,29.192,29.192,0,0,1,19.95,8.55c8.634,5.269,8.55,17.1,8.55,17.1v195.7s-1.023,30.515-4.75,47.5c-0.846,8.231-3.908,27.662-12.35,44.65a110.97,110.97,0,0,1-24.7,33.25c-8.167,7.4-23.484,16.963-42.75,23.75a198.156,198.156,0,0,1-41.8,9.5c-51.465,9.057-98.152,3.519-128.25-2.85-26.387-5.584-45.845-13.214-63.65-25.65-10.7-7.478-25.65-22.8-25.65-22.8l-191.9-194.75s-7.191-7.883-8.55-16.15c-0.8-4.842-.276-10.792,2.85-18.05A37.651,37.651,0,0,1,270.225,635.827Z"/>
    </g>
  </g>
</svg>
